:FULLY-SPECIFIED
:FORCE-ALL-JOINTS-BE-3DOF
:DEGREES
3058
root -1.64903 15.9803 -34.0554 1087.01 3.114 1.41757
lfemur -35.1264 4.14982 -2.8494
ltibia 62.1064 0 0
lfoot -8.02522 1.87927 0
ltoes -36.3305 0 0
rfemur -36.6806 -6.63336 25.641
rtibia 60.9369 0 0
rfoot -19.4119 -28.4876 0
rtoes -6.94943 0 0
lowerback 12.8039 0.180405 -1.4713
upperback -1.16758 0.1348 1.59084
thorax -8.46791 0.182729 2.52384
lowerneck 3.96681 -9.54567 -12.0295
upperneck -3.40613 -13.0871 9.69037
head -0.195031 -6.60918 5.05362
lclavicle -3.24031e-14 1.07813e-15 0
lhumerus 16.0539 -44.2905 88.0343
lradius 67.3768 0 0
lwrist -6.48442 0 0
lhand -28.1208 391.642 0
lfingers 7.12502 0 0
lthumb -1.50261 -658.381 0
rclavicle -3.24031e-14 1.07813e-15 0
rhumerus 20.2947 47.0068 -54.2875
rradius 104.611 0 0
rwrist -45.4737 0 0
rhand -3.80489 -385.24 0
rfingers 7.12502 0 0
rthumb 21.9483 305.87 0
3059
root -1.61281 15.9878 -34.0422 1086.96 3.49601 1.37183
lfemur -34.9014 4.04713 -2.96164
ltibia 61.3717 0 0
lfoot -8.55317 1.4961 0
ltoes -36.8981 0 0
rfemur -36.4117 -6.41868 25.3913
rtibia 60.9181 0 0
rfoot -19.3704 -28.2926 0
rtoes -7.46959 0 0
lowerback 12.758 0.212158 -1.40205
upperback -1.17524 0.187545 1.57561
thorax -8.45104 0.204069 2.45644
lowerneck 3.86849 -9.38475 -11.9173
upperneck -3.27831 -12.8634 9.56428
head -0.179304 -6.495 5.01082
lclavicle -3.27344e-14 6.18078e-17 0
lhumerus 14.7517 -44.5199 88.5461
lradius 67.7103 0 0
lwrist -6.20946 0 0
lhand -28.1003 391.834 0
lfingers 7.12502 0 0
lthumb -1.48285 -658.189 0
rclavicle -3.27344e-14 6.18078e-17 0
rhumerus 18.2219 47.5522 -55.5473
rradius 105.323 0 0
rwrist -45.1916 0 0
rhand -3.80466 -385.109 0
rfingers 7.12502 0 0
rthumb 21.9486 306 0
3060
root -1.5766 15.9952 -34.0291 1086.91 3.86327 1.32272
lfemur -34.6786 3.94437 -3.07636
ltibia 60.6324 0 0
lfoot -9.0778 1.12002 0
ltoes -37.4592 0 0
rfemur -36.1411 -6.20409 25.1434
rtibia 60.8957 0 0
rfoot -19.3289 -28.0978 0
rtoes -7.98758 0 0
lowerback 12.7113 0.244438 -1.33268
upperback -1.18366 0.241021 1.56053
thorax -8.43446 0.225758 2.38897
lowerneck 3.76835 -9.22287 -11.8041
upperneck -3.14928 -12.6383 9.43759
head -0.162973 -6.38011 4.96749
lclavicle -3.30459e-14 -9.38624e-16 0
lhumerus 13.4479 -44.7344 89.0548
lradius 68.0427 0 0
lwrist -5.93562 0 0
lhand -28.0813 392.025 0
lfingers 7.12502 0 0
lthumb -1.4645 -657.998 0
rclavicle -3.30459e-14 -9.38624e-16 0
rhumerus 16.1529 48.0784 -56.8052
rradius 106.017 0 0
rwrist -44.9023 0 0
rhand -3.81582 -384.983 0
rfingers 7.12502 0 0
rthumb 21.938 306.124 0
3061
root -1.54038 16.0027 -34.0159 1086.86 4.21658 1.27083
lfemur -34.4576 3.8417 -3.19296
ltibia 59.8916 0 0
lfoot -9.59746 0.752282 0
ltoes -38.0119 0 0
rfemur -35.8693 -5.99047 24.8976
rtibia 60.8691 0 0
rfoot -19.2873 -27.9037 0
rtoes -8.50159 0 0
lowerback 12.6635 0.277052 -1.26347
upperback -1.19284 0.294926 1.5457
thorax -8.41814 0.247671 2.32178
lowerneck 3.66664 -9.06074 -11.6905
upperneck -3.01935 -12.4128 9.31078
head -0.146008 -6.265 4.92378
lclavicle -3.33363e-14 -1.91772e-15 0
lhumerus 12.1457 -44.9339 89.5591
lradius 68.3723 0 0
lwrist -5.66405 0 0
lhand -28.064 392.213 0
lfingers 7.12502 0 0
lthumb -1.44778 -657.81 0
rclavicle -3.33363e-14 -1.91772e-15 0
rhumerus 14.0939 48.5837 -58.0568
rradius 106.691 0 0
rwrist -44.6054 0 0
rhand -3.8389 -384.862 0
rfingers 7.12502 0 0
rthumb 21.9158 306.241 0
3062
root -1.50417 16.0101 -34.0028 1086.82 4.55669 1.21672
lfemur -34.2381 3.73928 -3.31088
ltibia 59.1521 0 0
lfoot -10.1105 0.394112 0
ltoes -38.5546 0 0
rfemur -35.5971 -5.77868 24.6544
rtibia 60.8375 0 0
rfoot -19.2454 -27.711 0
rtoes -9.00979 0 0
lowerback 12.6147 0.309807 -1.19471
upperback -1.2028 0.348962 1.53121
thorax -8.40204 0.269683 2.25521
lowerneck 3.56361 -8.89905 -11.5768
upperneck -2.88881 -12.1878 9.18438
head -0.128379 -6.15017 4.87988
lclavicle -3.36044e-14 -2.87002e-15 0
lhumerus 10.8489 -45.1181 90.0576
lradius 68.6976 0 0
lwrist -5.39594 0 0
lhand -28.0486 392.398 0
lfingers 7.12502 0 0
lthumb -1.43293 -657.624 0
rclavicle -3.36044e-14 -2.87002e-15 0
rhumerus 12.0515 49.0662 -59.2977
rradius 107.341 0 0
rwrist -44.3003 0 0
rhand -3.87446 -384.749 0
rfingers 7.12502 0 0
rthumb 21.8816 306.352 0
3063
root -1.46795 16.0176 -33.9897 1086.77 4.88436 1.16098
lfemur -34.0197 3.63728 -3.42951
ltibia 58.4167 0 0
lfoot -10.6153 0.0467534 0
ltoes -39.0853 0 0
rfemur -35.3251 -5.5696 24.4145
rtibia 60.8003 0 0
rfoot -19.2028 -27.5201 0
rtoes -9.51037 0 0
lowerback 12.5648 0.34251 -1.12669
upperback -1.21355 0.402829 1.51718
thorax -8.38613 0.29167 2.18961
lowerneck 3.45953 -8.73851 -11.4637
upperneck -2.75798 -11.9644 9.05886
head -0.110057 -6.03611 4.83594
lclavicle -3.38488e-14 -3.79009e-15 0
lhumerus 9.56082 -45.2869 90.5489
lradius 69.0167 0 0
lwrist -5.13246 0 0
lhand -28.0354 392.579 0
lfingers 7.12502 0 0
lthumb -1.42018 -657.443 0
rclavicle -3.38488e-14 -3.79009e-15 0
rhumerus 10.0319 49.5241 -60.5235
rradius 107.962 0 0
rwrist -43.9865 0 0
rhand -3.92303 -384.642 0
rfingers 7.12502 0 0
rthumb 21.8348 306.455 0
3064
root -1.43173 16.0251 -33.9765 1086.73 5.20038 1.10417
lfemur -33.8023 3.53586 -3.54829
ltibia 57.6883 0 0
lfoot -11.1101 -0.288553 0
ltoes -39.6022 0 0
rfemur -35.0541 -5.3641 24.1781
rtibia 60.7567 0 0
rfoot -19.1593 -27.3317 0
rtoes -10.0015 0 0
lowerback 12.5138 0.374966 -1.05968
upperback -1.2251 0.456227 1.50369
thorax -8.37036 0.313508 2.12532
lowerneck 3.35464 -8.57982 -11.3515
upperneck -2.62715 -11.7433 8.93474
head -0.0910115 -5.9233 4.79215
lclavicle -3.40682e-14 -4.67246e-15 0
lhumerus 8.285 -45.4402 91.0315
lradius 69.3281 0 0
lwrist -4.87477 0 0
lhand -28.0247 392.756 0
lfingers 7.12502 0 0
lthumb -1.40976 -657.266 0
rclavicle -3.40682e-14 -4.67246e-15 0
rhumerus 8.04147 49.9555 -61.73
rradius 108.553 0 0
rwrist -43.6636 0 0
rhand -3.98516 -384.543 0
rfingers 7.12502 0 0
rthumb 21.775 306.55 0
3065
root -1.39552 16.0325 -33.9634 1086.69 5.50551 1.04688
lfemur -33.5854 3.43519 -3.66663
ltibia 56.9697 0 0
lfoot -11.5933 -0.610567 0
ltoes -40.1035 0 0
rfemur -34.7848 -5.16306 23.9459
rtibia 60.706 0 0
rfoot -19.1148 -27.1462 0
rtoes -10.4814 0 0
lowerback 12.4614 0.406982 -0.99399
upperback -1.23746 0.508857 1.49086
thorax -8.35472 0.335072 2.06269
lowerneck 3.24919 -8.42367 -11.2407
upperneck -2.49664 -11.5258 8.81251
head -0.071212 -5.81225 4.74867
lclavicle -3.42615e-14 -5.51169e-15 0
lhumerus 7.02494 -45.5779 91.5041
lradius 69.63 0 0
lwrist -4.62405 0 0
lhand -28.0165 392.928 0
lfingers 7.12502 0 0
lthumb -1.40192 -657.094 0
rclavicle -3.42615e-14 -5.51169e-15 0
rhumerus 6.08668 50.3585 -62.9128
rradius 109.109 0 0
rwrist -43.331 0 0
rhand -4.06139 -384.452 0
rfingers 7.12502 0 0
rthumb 21.7015 306.635 0
